<svg xmlns="http://www.w3.org/2000/svg" viewBox="0 0 32 24" width="32" height="24">
  <rect x="1.2" y="1.8" width="29.6" height="21.6" rx="1.2" ry="1.2"
        fill="#000000" fill-opacity="0.18"/>
  <rect x="0.8" y="0.8" width="29.6" height="21.6" rx="1.4" ry="1.4"
        fill="#fbf5e0" stroke="#b8a06a" stroke-width="0.6"/>
  <line x1="5" y1="1.5" x2="5" y2="22" stroke="#d86868" stroke-width="0.5" stroke-opacity="0.7"/>
  <line x1="1.5" y1="7" x2="29.5" y2="7" stroke="#7aa5d6" stroke-width="0.3" stroke-opacity="0.55"/>
  <line x1="1.5" y1="11" x2="29.5" y2="11" stroke="#7aa5d6" stroke-width="0.3" stroke-opacity="0.55"/>
  <line x1="1.5" y1="15" x2="29.5" y2="15" stroke="#7aa5d6" stroke-width="0.3" stroke-opacity="0.55"/>
  <line x1="1.5" y1="19" x2="29.5" y2="19" stroke="#7aa5d6" stroke-width="0.3" stroke-opacity="0.55"/>
  <path d="M 17.4,4.8 L 19.6,10.2 L 25.4,10.6 L 21.0,14.4 L 22.5,20.0 L 17.2,16.8 L 11.9,20.2 L 13.2,14.6 L 8.8,10.9 L 14.6,10.3 Z"
        fill="#e8a94c" stroke="#6a3f10" stroke-width="0.9" stroke-linejoin="round" stroke-linecap="round"/>
  <path d="M 16.8,5.2 Q 18.2,5.6 19.0,7.8" stroke="#fff4cf" stroke-width="0.6" fill="none" stroke-linecap="round" stroke-opacity="0.75"/>
</svg>
